<?xml version="1.0" standalone="no"?>
<!DOCTYPE svg PUBLIC "-//W3C//DTD SVG 20010904//EN"
 "http://www.w3.org/TR/2001/REC-SVG-20010904/DTD/svg10.dtd">
<svg version="1.0" xmlns="http://www.w3.org/2000/svg"
 width="24.000000pt" height="24.000000pt" viewBox="0 0 24.000000 24.000000"
 preserveAspectRatio="xMidYMid meet">

<g transform="translate(0.000000,24.000000) scale(0.100000,-0.100000)"
fill="#000000" stroke="none">
<path d="M63 220 c-34 -21 -63 -66 -63 -100 0 -54 65 -120 118 -120 57 0 122
64 122 120 0 56 -65 120 -122 120 -13 0 -37 -9 -55 -20z m85 -42 c15 -15 16
-50 1 -65 -8 -8 -5 -13 10 -18 12 -3 26 -15 32 -26 12 -24 -7 -44 -53 -54 -28
-7 -98 19 -98 36 0 13 38 49 52 49 9 0 9 3 0 12 -26 26 -7 78 28 78 9 0 21 -5
28 -12z"/>
</g>
</svg>
